<svg xmlns="http://www.w3.org/2000/svg" height="235.942" width="114.63"><path d="M34.17 148.305a2.153 2.153 0 0 0-2.002.801 7.386 7.386 0 0 0-1.767 5.521v-.002a4.118 4.118 0 0 0 .273 1.384 2.286 2.286 0 0 0 1.52 1.476 2.224 2.224 0 0 0 1.958-1.016 7.776 7.776 0 0 0 1.335-6.733 1.946 1.946 0 0 0-1.317-1.431m46.792 20.43a5.508 5.508 0 0 0-.476-3.916 4.017 4.017 0 0 0-2.55-1.949l-1.153-.243a104.755 104.755 0 0 1-5.004-1.125c-3.175-.794-5.9.661-7.404 3.904 1.547.449 3.07.866 4.555 1.242a15.37 15.37 0 0 0 .291-1.971.91.91 0 0 1 1.816.106 17.266 17.266 0 0 1-.338 2.296c.294.069.587.138.877.204.298.067.591.132.88.193.26-1.278.424-2.365.428-2.386a.91.91 0 0 1 1.8.273c-.015.087-.182 1.175-.45 2.479.611.118 1.187.223 1.735.315a17.162 17.162 0 0 0 .252-1.994.909.909 0 0 1 1.816.087 18.187 18.187 0 0 1-.267 2.181c1.26.171 2.317.264 3.192.304m-16.843 2.223a5.228 5.228 0 0 0 2.866 2.738 42.013 42.013 0 0 0 6.998 1.37c2.884.319 5.14-1.287 6.427-4.533-.965-.055-2-.167-3.068-.317a9.389 9.389 0 0 1-.787 1.882.91.91 0 0 1-1.58-.9 7.039 7.039 0 0 0 .548-1.268 72.71 72.71 0 0 1-1.693-.312 13.873 13.873 0 0 1-.646 2.007.91.91 0 1 1-1.667-.728 11.77 11.77 0 0 0 .532-1.646l-.875-.195c-.307-.07-.618-.143-.93-.216a17.086 17.086 0 0 1-.593 1.628.908.908 0 1 1-1.673-.707c.193-.458.356-.915.495-1.354-1.532-.388-3.106-.82-4.702-1.285a5.843 5.843 0 0 0 .348 3.836m20.231-23.159c-1.375-3.608-5.976-6.164-12.039-7.536-11.203-2.534-25.924 1.651-35.29 9.53a9.031 9.031 0 0 1-.23 4.716 152.782 152.782 0 0 0 25.824 10.374c2.178-5.004 6.352-5.958 9.605-5.145 2.331.582 3.83.886 4.925 1.107l1.204.255a5.845 5.845 0 0 1 3.718 2.82 7.18 7.18 0 0 1 .743 4.817 3.304 3.304 0 0 0 1.818-.41 30.042 30.042 0 0 0-.278-20.528m-10.567 29.074a43.306 43.306 0 0 1-7.392-1.46 7.026 7.026 0 0 1-3.922-3.689 7.428 7.428 0 0 1-.684-2.836 8.192 8.192 0 0 1 .24-2.287 155.76 155.76 0 0 1-25.937-10.409 7.444 7.444 0 0 1-.824 1.215 4.643 4.643 0 0 1-1.689 1.303 37.568 37.568 0 0 0 5.768 16.124c4.173 6.445 9.857 10.862 15.998 12.251 2.177.492 5.023 1.104 7.567.54a29.934 29.934 0 0 0 20.897-17.208 10.878 10.878 0 0 1-1.467.142c-2.154 6.301-6.683 6.521-8.555 6.314m-43.838-26.597a7.74 7.74 0 0 1 1.154-1.893 5.012 5.012 0 0 1 1.182-1.04 27.061 27.061 0 0 1 6.83-13.287 30.01 30.01 0 0 0-10.994 14.703 9.38 9.38 0 0 0 1.828 1.517m-.578 1.765a17.255 17.255 0 0 1-1.813-1.442 29.861 29.861 0 0 0-1.015 9.061c.026.631.071 1.26.135 1.881a19.152 19.152 0 0 1 2.616-5.765 8.944 8.944 0 0 1 .077-3.735m2.395 6.837a2.917 2.917 0 0 1-1.668-1.186c-2.229 3.435-3.167 6.507-2.349 9.266a29.924 29.924 0 0 0 25.858 21.249c-11.684-3.548-20.329-15.721-21.84-29.329M46.148 17.282a19.446 19.446 0 0 0-.504-4.528s2.688-.141 2.688-3.414c0-2.696-1.799-4.536-2.282-4.536-.39 0-.485.412-1.328.412-2.055 0-2.206-2.624-2.206-2.624q.456-.016.938-.016c5.881 0 11.323 1.782 11.323 14.706a116.757 116.757 0 0 1-.852 12.784 77.314 77.314 0 0 0-.654 10.517s-10.24-1.206-10.24-8.91c0-5.002 3.117-6.219 3.117-14.391m16.287 85.37c0 10.114-4.314 18.338-6.807 20.831-7.722 7.723-14.095 2.099-14.164 9.849-3.504 3.174-6.025 8-7.262 13.512a2.167 2.167 0 0 1 .228.032 2.883 2.883 0 0 1 1.825 1.2c9.81-7.995 24.913-12.197 36.457-9.587a20.44 20.44 0 0 1 9.141 4.258 30.006 30.006 0 0 0-15.369-12.456c-1.522-.545-4.224-1.17-4.224-6.103 0-9.208 10.074-2.049 16.71-12.079.326-.493-.143-.927-.532-.538-2.008 2.007-6.938 3.387-9.547 3.387a7.61 7.61 0 0 1-3.593-.594 71.817 71.817 0 0 1 5.534-9.079c-6.16-6.162 4.21-40.038 31.65-40.038a85.941 85.941 0 0 0-1.839-18.546c-.653.158-5.823 1.378-6.059.29-.208-.962 3.808-3.05 5.19-3.736a30.824 30.824 0 0 0-2.69-6.9C73.564 43.766 78.29 63.239 72.56 63.239c-3.729 0-6.658-2.904-7.704-3.95-14.048-14.046-7.502-23.341-7.502-42.007C57.355 4.708 52.472 0 43.455 0c-9.019 0-12.239 3.903-12.239 3.903s12.356.4 12.356 13.379c0 13.586-15.3 17.336-15.3 34.572 0 28.692 34.164 28.154 34.164 50.798M10.657 184.597a86.357 86.357 0 0 0 4.722 2.871l-.851 2.204c-.317-1.334-1.64-2.059-3.35-3.116l-5.593 8.09a15.226 15.226 0 0 0-2.121 3.941s-.917-.584-1.756-1.208A223.213 223.213 0 0 0 0 196.123c.834-.205 2.274-2.328 3.141-3.504l5.443-7.766c-2.039-1.574-2.835-1.883-4.275-1.957l1.937-1.453s1.862 1.472 4.411 3.154M20.685 191.236c-2.484-1.184-4.44 1.621-5.912 4.706s-2.436 6.39.048 7.576c2.485 1.184 4.449-1.642 5.92-4.726 1.475-3.084 2.428-6.368-.056-7.556m-6.408 13.423c-3.886-1.856-4.4-6.135-2.488-10.142 1.922-4.025 5.584-6.288 9.45-4.44 3.867 1.844 4.41 6.114 2.488 10.141-1.912 4.005-5.565 6.296-9.45 4.441M31.663 194.213c2.627.742 4.766 1.24 4.766 1.24l-.23 2.35c-.703-1.016-1.025-1.265-3.268-1.837l-2.717 9.144c-.22.836-1.305 4.001-.957 4.597 0 0-.756-.16-1.975-.498-1.37-.38-2.013-.637-2.013-.637.7-.463 1.587-3.17 1.875-4.27l2.733-9.203c-2.323-.774-2.863-.829-3.974-.312l1.347-2.006s1.517.613 4.413 1.432M42.502 196.642c2.59.391 5.029.613 5.029.613l.095 2.36c-.965-.86-1.33-1.14-3.887-1.462l-1.48 9.39c-.104.857-.655 4.122-.228 4.665 0 0-.896-.098-2.135-.273s-2-.348-2-.348c.605-.474 1.107-3.567 1.212-4.426l1.517-9.507c-2.215-.442-2.671-.27-3.734.345l.963-2.232s2.07.486 4.648.875M52.104 205.568l-.196 6.309c3.307.043 5.573-.165 6.582-1.6l-.506 2.865s-1.832.039-4.514 0c-2.952-.042-5.265-.233-5.265-.233.49-.487.613-3.56.619-4.427l.269-6.191c.01-1.65.162-4.313-.391-4.874 2.396.166 2.09.163 4.292.249 2.88.114 4.515.028 4.515.028l.36 2.366c-1.125-.938-2.81-1.046-5.563-1.063l-.152 5.294 4.228.025c.382.004.407.217.404.64-.004.418-.01.642-.412.637ZM70.577 207.468c.244 2.296.485 3.945 1.008 4.246a1.476 1.476 0 0 1-1.097.607 1.836 1.836 0 0 1-1.624-.788l-7.498-8.601.28 5.47c.093.862.19 4.124.728 4.557l-2.5.115c.435-.537.319-3.645.227-4.506l-.353-6.177c-.093-.861-.253-4.275-.792-4.708l2.292-.083 7.688 9.128-.641-5.253c-.091-.862-.56-3.993-1.076-4.43 0 0 .275-.024 1.208-.15.932-.127 1.272-.195 1.272-.195-.434.539.069 3.748.16 4.61ZM84.667 204.213c.265 1.067.793 3.811 1.58 4.348 0 0-1.189.342-1.91.565-.647.2-2.07.567-2.07.567.336-.592-.413-3.883-.619-4.706l-.713-2.865-4.766 1.17.542 2.913c.156.942.653 4.111 1.295 4.497 0 0-.665.14-2.055.423-1.165.238-1.972.366-1.972.366.355-.592-.123-3.53-.272-4.468l-1.154-6.159c-.21-1.148-.74-4.053-1.376-4.392l1.977-.382c1.362-.265 2.028-.445 2.028-.445-.334.69.257 3.475.418 4.452l.367 1.954 4.69-1.142-.508-1.998c-.275-1.056-.858-3.596-1.51-4.067 0 0 .645-.187 1.95-.556s1.868-.579 1.868-.579c-.26.703.466 3.176.766 4.451ZM92.53 199.56l-4.133-5.725.292 7.19Zm.844 1.001-4.651 1.821.162 2.553a10.395 10.395 0 0 0 .297 2.123.905.905 0 0 0 .407.454s-.483.176-1.282.435c-.798.26-1.238.385-1.238.385a3.743 3.743 0 0 0 .32-1.967l-.407-12.106a4.12 4.12 0 0 0-.24-1.199 1.593 1.593 0 0 0-.497-.609 12.31 12.31 0 0 1 1.865-1.004c1.069-.45 1.517-.43 2.296.478l6.824 8.461c1.24 1.615 2.335 2.702 3.049 2.918 0 0-.697.323-2.006.906-1.313.583-2.18.913-2.18.913a1.465 1.465 0 0 0-.084-1 13.13 13.13 0 0 0-1.287-1.874ZM112.856 196.172c-.934.631-1.634 1.114-1.634 1.114-.07-.92-1.847-3.197-2.37-3.886l-4.007-5.229 3.222 10.307a2.578 2.578 0 0 1-.565.651 1.364 1.364 0 0 1-1.82-.056l-7.63-6.327 2.67 4.92c.653 1.246 1.912 3.838 2.758 4.093 0 0-.524.282-1.19.606-.664.32-1.068.507-1.068.507.147-.723-1.091-2.875-1.814-4.25l-2.974-5.59c-.9-1.683-1.893-3.396-2.75-3.738.663-.32.862-.42 1.807-.884.787-.389 1.481-.77 1.481-.77l8.594 7.31-3.38-10.349s.453-.307 1.31-.88c.858-.574 1.633-1.144 1.633-1.144.063.927 1.85 3.285 2.502 4.13l3.702 4.761c.785.978 2.251 3.158 3.297 3.41 0 0-.838.663-1.773 1.294M24.93 214.99c.795.291 1.823.648 1.823.648-.865.627-1.662 3.123-2.176 4.478l-1.995 5.536c-.535 1.502-1.445 3.68-1.14 4.456 0 0-1.098-.379-1.987-.695-.759-.27-1.19-.416-1.996-.759.98-.258 1.902-3.512 2.2-4.33l.914-2.583-4.782-1.995-1.383 2.955c-.45 1.027-1.527 3.35-1.272 4.08 0 0-.843-.346-2.08-.914-1.457-.67-1.775-.85-1.775-.85 1.027-.504 1.633-2.159 2.415-3.833l2.502-5.539c.845-1.894 1.608-3.538 1.551-4.62 0 0 .446.267 1.676.82.98.441 1.48.66 2.03.88-.779.311-1.86 3.106-2.434 4.36l-.732 1.566 4.672 1.922.717-1.775c.334-.905 1.492-3.612 1.243-4.54 0 0 .96.348 2.008.732M34.033 218.881c-2.66-.701-4.037 2.352-4.889 5.587-.852 3.234-1.16 6.59 1.503 7.291 2.661.701 4.043-2.374 4.894-5.607.853-3.236 1.157-6.571-1.507-7.271m-3.703 14.076c-4.165-1.096-5.49-5.128-4.385-9.331 1.111-4.223 4.265-7.053 8.41-5.964 4.141 1.091 5.494 5.108 4.384 9.331-1.105 4.202-4.244 7.06-8.409 5.964M41.612 234.443a2.41 2.41 0 0 0 .445-.87 35.675 35.675 0 0 0 .614-3.627l1.167-9.017c-2.486-.31-3.116-.132-4.206.514l1.021-2.308c.776.171 2.49.357 4.575.62 1.393.175 5.55.55 5.55.55l.142 2.308c-.917-1.062-1.868-1.155-3.937-1.319l-1.163 9.047c-.104.841-.567 3.764-.108 4.63-.499-.058-1.328-.15-2.02-.22-.719-.073-1.666-.238-2.08-.308M61.409 231.31c.027 2.716-2.18 4.682-5.574 4.631a6.836 6.836 0 0 1-4.552-1.568l.55-2.576a4.558 4.558 0 0 0 3.709 2.858 2.579 2.579 0 0 0 2.88-2.5c.018-1.152-.616-1.847-3.283-3.235-2.554-1.32-3.505-2.636-3.505-4.6 0-2.67 2.325-4.028 5.055-4.03a8.812 8.812 0 0 1 4.29 1.086l-.568 2.358c-1.218-1.625-2.32-2.23-3.65-2.249a1.962 1.962 0 0 0-2.231 2.043c.01 1.465 1.624 2.26 3.802 3.478 2.503 1.4 3.06 2.804 3.077 4.304M73.774 222.997a5.482 5.482 0 0 1 .185 1.008 5.946 5.946 0 0 1 .007 1.004 4.51 4.51 0 0 1-1.18 2.62 5.915 5.915 0 0 1-4.25 1.734c-.704.043-.873-.173-.92-.678l-.005-.11s-.015-.197.14-.207l.175-.017a2.857 2.857 0 0 0 1.977-1.016 4.215 4.215 0 0 0 .718-3.014 3.499 3.499 0 0 0-1.27-2.665 3.319 3.319 0 0 0-2.354-.64s-.338.027-.712.084a.216.216 0 0 0-.2.236l.901 9.351c.08.823.303 3.722.98 4.321 0 0-.768.081-2.218.2a42.327 42.327 0 0 1-1.964.112 7.716 7.716 0 0 0 .17-3.014l-.699-7.374c-.08-.844-.224-3.738-.913-4.453 0 0 1.851-.274 5.278-.597a6.605 6.605 0 0 1 4.525.916 4.036 4.036 0 0 1 1.63 2.2M87.786 226.012a5.39 5.39 0 0 1-4.16 6.844c-2.37.592-5.783-.277-6.736-4.436l-1.158-4.908c-.307-1.373-.806-3.807-1.603-4.44 0 0 .889-.127 2.285-.388a47.495 47.495 0 0 0 2.043-.413c-.366.576.018 2.849.382 4.52l1.48 6.241a3.809 3.809 0 0 0 1.28 2.387 2.294 2.294 0 0 0 1.77.317 2.192 2.192 0 0 0 1.557-1.062 3.936 3.936 0 0 0 .077-2.706l-1.662-6.24c-.455-1.717-.978-3.867-1.54-4.227 0 0 .677-.184 1.96-.55.97-.278 1.549-.447 1.969-.594-.382.939.532 3.818.724 4.644ZM102.93 224.733a1.35 1.35 0 0 0 .973.086 2.088 2.088 0 0 1-.544.935 2.86 2.86 0 0 1-3.077.988 23.424 23.424 0 0 1-6.445-4.763.105.105 0 0 1 .06-.142l.144-.063a3.281 3.281 0 0 0 1.504-4.494 3.404 3.404 0 0 0-1.905-1.983 3 3 0 0 0-2.062.114 3.163 3.163 0 0 0-.731.39s-.112.092.019.477l2.97 8.482c.45 1.25 1.235 3.683 1.945 4.095 0 0-.802.316-2.018.756-1.22.44-1.96.643-1.96.643.248-.946-.688-3.522-.923-4.245l-1.923-5.732c-.48-1.379-1.355-3.857-2.07-4.25a44.664 44.664 0 0 0 4.554-1.719 7.179 7.179 0 0 1 4.768-.575 3.423 3.423 0 0 1 1.982 1.42 4.692 4.692 0 0 1 .444.826 4.042 4.042 0 0 1 .235.84 3.874 3.874 0 0 1-.475 2.654 4.951 4.951 0 0 1-1.415 1.562 24.93 24.93 0 0 0 5.95 3.698" fill="#132257"/></svg>