<svg width="228.36" height="320.22" xml:space="preserve" xmlns="http://www.w3.org/2000/svg"><g fill-rule="evenodd" stroke-width=".27"><path d="M225.403 4.04H4.04v237.614c0 18.56 11.283 33.17 33.847 43.947 7.504 3.61 17.489 7.334 30.013 11.114l27.924 8.518 3.948 1.806c2.932 1.353 5.02 2.481 6.206 3.384 2.876 2.03 5.697 4.625 8.461 7.841 2.652-2.764 4.796-4.795 6.375-6.093 3.103-2.539 7.051-4.74 11.959-6.6 3.497-1.354 12.75-4.287 27.754-8.856 12.917-3.95 23.073-7.616 30.35-11.001 23.014-10.662 34.524-25.33 34.524-44.058z" fill="#7b003a"/><path d="M106.653 301.113c2.595 1.748 5.19 3.95 7.841 6.712 2.427-2.369 4.4-4.118 5.865-5.244 2.764-2.144 6.433-4.063 11.116-5.698 3.214-1.185 11.847-3.723 25.78-7.673 12.016-3.441 21.435-6.6 28.264-9.532 21.38-9.195 32.041-21.945 32.041-38.136V12.052H11.882v229.49c0 16.078 10.494 28.715 31.422 38.021 6.996 3.102 16.303 6.318 27.924 9.646l25.95 7.39z" fill="#a3c5e9"/><path d="m55.104 89.995-7.672-1.128-3.498-7.052-3.386 7.052-7.727 1.128 5.584 5.529-1.354 7.841a730.128 730.128 0 0 0 6.883-3.723l6.938 3.723-1.354-7.841z" fill="#fff"/><path d="M93.085 103.97c-1.549 1.547-1.47 3.927-3.132 4.86-1.201.675-2.572.46-3.154-.16-.834-.891-1.123-2.285-.032-3.508 1.295-1.454 4.014-1.23 6.318-1.192m-11.631 22.563c-.048 1.899.23 3.364 1.157 4.502-1.35 1.073-1.081 2.767-.457 4.276.678 1.639 2.996 4.235 5.86 5.437.487-.846-.866-3.106-.38-4.658 1.752 1.343 3.414 2.397 4.551 2.292-.77-1.555-.851-2.6-.567-3.015 3.076-2.558 6.726-5.792 8.904-6.506 1.765-.579 3.613.65 3.914 2.871.344 2.542-.639 4.68-2.316 6.47-2.977 3.177-6.975 4.706-10.06 8.128-4.92 5.456-5.949 11.486-11.917 11.799 3.298-2.22 5.173-4.121 7.06-7.723-11.776 1.794-18.932-4.554-26.175-8.265-3.174-1.627-6.347-1.968-8.147-2.356-2.874-2.97-4.343-5.409-5.02-9.396-.766-4.518.379-8.526-3.764-9.015-2.375-3.286-5.397-5.513-9.832-2.606 2.373.411 4.096.974 5.267 4.482-.343.514-1.14 1.285-1.16 2.186-1.498.085-1.966.212-2.95 1.155-3.941-1.592-7.652-.935-9.535 2.972 2.741-.732 4.86-.643 6.744 1.203.203 1.264.335 2.188 1.052 3.107-1.629.994-2.622 2.975-2.685 4.292-3.182.758-5.106 2.745-5.276 5.768 2.276-1.593 4.632-1.788 5.797-1.475.742.76 1.403 2.238 2.93 2.664 1.728.483 5.076-.238 7.01.33.758 1.338 1.038 2.035.97 2.886-.27 3.341-5.704 1.141-5.208 6.14-1.887.54-3.03-.12-4.678-1.302 1.108 4.947 4 7.202 7.844 4.873 3.262.711 5.28-2.666 8.218-4.276 2.83-1.55 6.955.441 9.29 2.094 3.58 2.535 7.385 5.742 9.356 13.385 1.28-1.318 2.146-3.247 2.36-5.131l9.291 8.603L58.87 188.26c-1.368 1.06-2.91 2.032-4.348 1.46-1.231-.488-1.933-1.847-3.008-2.862-1.57-1.484-3.683-2.47-5.942-1.232-3.581-.12-6.904.725-7.58 6.102 1.184-1.069 2.273-2.017 4.497-1.35.01 1.35.352 2.528 1.22 3.533-1.113.686-1.842 1.757-1.927 2.442-3.305.191-5.715 2.063-6.038 5.975 1.875-1.879 3.44-2.706 5.654-1.8.654 4.013 2.499 4.513 4.624 4.24-.6 1.714-.73 2.933.04 4.368-1.153 2.56.1 5.862 1.758 6.962-.214-1.586.043-3.472.944-4.306 1.884.465 3.283-.288 5.167-2.745.45 2.067 1.897 3.21 3.718 3.044.245 2.153 1.222 3.887 2.496 5.01-.364-1.756-.57-3.705-.248-5.46 3.415-2.698 2.725-5.637 3.291-8.992.63-3.735 2.511-5.396 5.521-7.372 5.843-3.836 12.736-6.746 23.634-7.66 3.405 4.11 6.795 8.56 11.1 12.347-6.587 5.311-11.05 3.082-16.39 3.708-2.407.281-5.59 1.406-7.312 3.188-1.517 1.57-2.292 3.568-3.981 4.416-1.313.66-3.071.84-5.112-.848-.1 4.805 1.844 6.396 6.752 6.118-1.733 2.05-3.554 2.827-7.28 1.46 1.579 3.824 4.159 5.233 8.163 4.81.948 6.55 9.346 10.184 7.85 15.356-2.024 7.003-17.51 8.924-23.134 5.3-3.954-2.548-5.72-6.8-10.368-5.398-2.56-2.33-7.292-3.094-9.242 2.496 3.375-1.885 4.915-.856 4.187 1.361-6.065.08-8.352 3.094-7.507 7.206 1.176-2.156 2.424-2.656 3.961-2.359-.508 1.166-.837 2.692-.77 5.01-2.996 1.812-3.112 5.136-1.752 7.919.789-2.27 1.181-4.344 3.037-4.45 1.11 1.503 2.651 2.573 4.624 3.212-.692 3.558-.52 6.792.514 9.487.684-2.384 1.367-3.903 2.266-4.99 3.124 2.165 6.428 2.208 9.656 1.338 6.595-1.779 10.645-6.92 15.766-6.997 2.847-.043 4.146 2.193 2.235 4.806 4.086-.248 6.286-1.206 8.27-2.351 3.096-1.787 5.048-4.03 8.049-4.748 4.988-1.193 12.02 4.523 15.363-1.858-3.929.662-6.188-1.117-6.876-2.976 4.95.862 8.166.715 10.823-3.421-7.224 1.215-10.438-5.084-10.883-8.543-.416-3.249.632-9.334 7.383-11.383 2.175-4.517 3.323-6.883 5.683-10.613l.785-3.635c.477 1.687.842 3.297.314 5.125-.771 2.673-2.635 5.586-3.764 8.65-.93 2.52-1.209 5.29-1.073 7.383.172 2.629 1.08 5.035 2.742 7.015 2.773 3.3 6.82 5.967 3.982 12.572 3.04-.3 4.785-1.753 7.826-5.22 2.311 1.763 4.011 4.139 3.155 7.343 3.84-1.18 6.264-4.19 7.621-8.572 5.502.159 8.582 1.253 9.115 3.37.889 3.526-7.913 16.61-18.972 17.056-1.756-.472-3.144-2.301-4.515-2.953-1.24-.588-2.946-.462-4.42 1.628-3.463-.94-7.538-.042-8.605 3.828-2.056.915-3.884 3.964-3.585 6.65.736-.638 3.097-2.216 3.996-2.339.249.802 1.635 1.644 2.426 1.874-4.68 4.102-4.826 7.466-4.416 9.068 1.976-3.197 4.291-3.792 5.416-3.706.795 1.998 2.374 2.829 4.684 3.088l.11 5.554 3.955-4.378c4.84 2.368 9.93.879 13.524-1.819 6.63-4.975 9.397-14.704 14.32-14.063 1.03.135 1.983 1.161 1.49 2.64 1.22.295 2.38-.192 3.26-1.242 1.937-2.307 3.14-6.903 6.754-12.311 2.309-3.457 7.856-7.201 9.44-10.628-2.578 1.7-5.59 1.164-6.006-.337 4.538-2.374 8.625-5.146 10.32-11.664-2.485 1.148-4.753 2.008-7.236 1.717 2.075-4.397 2.78-8.936.806-11.886-6.317 9.257-13.875 7.715-16.932 5.565-2.382-1.676-4.652-4.2-4.837-10.094-.048-1.543.327-4 .99-6.3.663-2.299 1.4-4.117 1.427-6.217 9.338 5.378 16.663 7 21.933 6.767 9.87-.437 16.266-8.268 15.92-18.283-.17-4.901-2.243-9.639-5.907-14.316-4.145-5.29-10.01-10.398-13.887-15.69-2.03-2.773-3.39-5.891-3.96-8.728-.916-4.567-.227-9.821 4.637-14.232 5.228 3.023 10.152 4.237 14.835 3.882 4.796-.364 8.6-3.23 12.294-6.27 1.666-1.371 3.413-2.805 6.951-2.411-1.165-1.356-3.303-2.82-6.52-2.663 7.556-9.166 10.595-20.622 6.412-28.63-.684 4.612-2.222 5.729-3.608 6.68-1.84 1.264-3.32 1.498-5.985 2.899 1.375-2.686 1.237-4.673.343-7.738-3.265 8.448-7.503 6.424-13.469 12.605.702-2.827.79-5.113-.271-7.723-.369 2.573-1.891 4.532-3.401 5.646-5.395 3.979-12.138 4.91-10.828 17.765-6.915 5.486-9.435 11.99-8.946 18.482.406 5.385 2.58 10.319 6.074 14.954 3.72 4.934 8.865 9.53 12.515 13.97 3.996 4.86 7.754 13.404 3.394 19.503-2.842 3.976-11.028 6.272-28.29-4.554-.9-9.242-7.986-18.747-9.489-27.205-.563-3.175-.281-5.913.296-8.798.51-2.546 1.296-5.207 1.254-8.385 2.956 2.463 6.346 3.054 8.87 2.097-2.01-.767-3.71-3.257-3.665-6.4.07-4.9 2.858-9.88.206-15.41 2.223 1.594 4.662 2.54 7.425 1.326-6.207-4.115-.536-9.418-3.504-16.233 2.182 1.076 5.336 1.073 7.626-.227-7.357-1.677-3.594-11.127-9.872-17.23 2.713.116 4.94-1.173 6.25-3.217-6.608 1.096-9.98-7.835-15.598-12.627-5.276-4.502-11.766-6.122-19.348-4.685-.095-1.114 1.715-2.767 3.922-3.88-6.896-2.94-13.994-.746-20.027 4.665.265-2.316-.119-4.632-1.798-6.84-.853 4.834-8.226 7.826-10.81 11.773-1.175 1.794-1.874 3.763-1.807 6.008-6.572 4.658-8.393 4.35-10.322 9.98-3.29 2.74-7.282 5.589-9.708 8.33.077.841.424 1.846.609 2.796l1.917-1.887c-.68 1.767-.57 3.496.249 4.909 1.562 2.697 4.684 4.15 6.489 5.305-1.116-3.379-.797-4.274.512-5.129 2.872-1.875 9.552-1.22 10.143-.302.804 1.246-.2 7.073-3.842 8.606-2.625 1.105-4.374.298-6.273-1.703" fill="#ffe500"/><path d="M190.087 22.035c-7.559 0-13.967 2.085-19.238 6.244a20.12 20.12 0 0 0-3.295 3.362 22.709 22.709 0 0 0-2.683 4.228 25.174 25.174 0 0 0-1.76 5.072c-.456 1.816-.684 3.808-.684 5.974 0 4.311.863 7.954 2.588 10.953 1.605 3 3.69 5.482 6.24 7.45 5.284 3.62 11.525 5.4 18.724 5.353 2.731-.047 5.307-.374 7.703-.996 2.383-.55 4.515-1.077 6.42-1.604 1.115-1.874 1.99-5.565 2.612-11.058-.216-.41-.635-.691-1.222-.82-.61-.047-1.078.07-1.39.34-.886 2.542-2.432 4.931-4.624 7.18-1.113 1.066-2.455 1.945-4.012 2.601-1.594.762-3.45 1.136-5.583 1.136-4.336 0-8.097-1.85-11.296-5.564-3.282-3.655-4.983-8.984-5.067-15.966.084-7.028 1.797-12.252 5.139-15.685 3.247-3.315 6.876-4.978 10.889-4.978 6.828.047 11.189 3.397 13.093 10.063.359.268.85.362 1.461.268.587-.093.97-.351 1.15-.784-.584-5.064-.847-8.707-.81-10.956-1.07-.129-2.828-.468-5.307-.996-2.447-.503-5.463-.772-9.046-.82m-54.547 7.216c-.048-1.382.066-2.233.375-2.553.222-.23.87-.34 1.933-.34h6.19c1.789 0 3.232.17 4.314.55 1.116.393 1.918 1.007 2.476 1.758.637.854 1.34 2.682 2.042 5.505.446.27.974.322 1.594.27.493-.041.846-.176 1.051-.551-.121-5.435-.17-9.09-.17-10.964-1.4.14-4.566.21-9.494.21H130.3c-1.69 0-3.382-.046-5.085-.07-1.667-.022-3.286-.047-4.844-.14-.375.187-.556.562-.556 1.136 0 .621.133 1.066.423 1.336l1.4.21c1.608.129 2.61.644 3.033 1.535.363.902.544 2.94.544 6.115V59.41c0 3.081-.181 5.073-.544 5.975-.423.843-1.426 1.358-3.032 1.534l-2.332.351c-.277.246-.422.645-.422 1.195 0 .574.145 1.008.422 1.277 4.228-.14 7.925-.21 11.078-.21 3.261 0 7.018.07 11.295.21.277-.27.422-.703.422-1.277 0-.55-.145-.949-.422-1.195l-2.585-.351c-1.492-.178-2.458-.692-2.917-1.547-.474-.892-.688-2.883-.64-5.966V49.93c0-.984.119-1.607.374-1.862.179-.178.713-.27 1.595-.27h6.07c1.8 0 3.07.215 3.757.715.667.484 1.06 1.593 1.389 3.233l.338 1.686c.314.27.772.363 1.378.34.602-.023 1.026-.14 1.244-.41-.134-2.202-.194-4.638-.194-7.31 0-2.729.06-5.235.194-7.52-.218-.363-.64-.55-1.244-.55s-1.064.164-1.378.48l-.338 1.687c-.328 1.64-.734 2.722-1.39 3.222-.696.53-1.956.725-3.756.725h-6.07c-.882 0-1.413-.105-1.595-.445-.253-.234-.374-.796-.374-1.686zm-31.385 10.718c2.404-5.634 4.35-9.582 5.835-11.819.75-1.383 2.041-2.202 3.866-2.472l1.823-.351c.278-.27.423-.691.423-1.266-.097-.573-.29-.949-.568-1.135-2.005.14-4.18.21-6.51.21-2.586 0-5.46-.07-8.637-.21-.436.186-.653.538-.653 1.066-.037.573.072 1.019.35 1.335l2.054.48c.845.141 1.377.316 1.606.515a.969.969 0 0 1 .278.691c0 .364-.23 1.22-.688 2.543-1.366 3.888-3.214 8.796-5.545 14.7l-2.609 6.595c-.894 2.225-1.631 3.96-2.223 5.225a188.11 188.11 0 0 1-2.198-5.436l-6.17-15.825c-.848-2.156-1.525-3.912-2.054-5.26-.496-1.37-.751-2.202-.751-2.471-.049-.621.533-1.066 1.754-1.347l2.114-.41c.23-.364.35-.809.35-1.336 0-.457-.145-.82-.41-1.066-4.047.14-7.562.21-10.559.21-3.224 0-6.401-.07-9.53-.21-.278.187-.471.515-.592.996-.097.504.011.972.326 1.405l1.945.48c1.558.235 2.657.727 3.298 1.477.615.714 1.545 2.776 2.802 6.184l11.38 28.618c1.075 2.905 2.053 5.575 2.947 8 .41.387 1.04.586 1.884.586 1.076 0 1.897-.2 2.465-.586 1.401-3.678 3.769-9.664 7.103-17.957zm-63.008 9.969c-.845.046-1.389-.106-1.618-.445-.29-.234-.242-.797.145-1.687l1.74-5.26c1.123-3.432 2.077-6.02 2.887-7.766.664 1.699 1.51 4.158 2.536 7.391l1.813 5.705c.398.89.47 1.452.217 1.687-.242.246-.774.374-1.619.374zm6.475 3.701c1.208 0 2.042.047 2.5.141.484.176.762.563.859 1.125l1.884 6.044c.894 2.636 1.341 4.229 1.341 4.78 0 .199-.097.42-.278.644-.23.234-.761.421-1.606.55l-2.272.351c-.313.34-.446.762-.41 1.266 0 .527.193.937.556 1.206 3.031-.14 6.196-.21 9.494-.21 3.745 0 7.344.07 10.8.21.326-.269.495-.726.495-1.335-.048-.55-.193-.938-.423-1.137l-2.682-.41c-1.208-.234-2.09-.82-2.633-1.757-.35-.527-.652-1.16-.93-1.885-.314-.715-.7-1.582-1.136-2.613l-9.526-27.585c-1.644-4.697-2.706-7.894-3.19-9.617-.215-.913-.76-1.37-1.607-1.37-.085.094-.674.68-1.75 1.745-1.16 1.078-2.61 1.91-4.35 2.472.049 1.769-.87 4.744-2.741 8.926l-6.306 17.124c-1.788 4.875-3.238 8.635-4.361 11.259-.568 1.31-1.196 2.202-1.884 2.683-.701.455-1.51.726-2.393.818l-1.896.211c-.23.34-.326.762-.278 1.266 0 .527.169.937.495 1.206 2.85-.094 5.267-.164 7.224-.21 2.995.046 5.738.116 8.226.21.327-.234.484-.656.484-1.277 0-.55-.11-.949-.338-1.195l-2.127-.351c-.99-.222-1.63-.433-1.957-.61-.386-.14-.579-.339-.579-.585-.049-.41.12-1.253.507-2.506l2.61-8.177c.18-.668.434-1.09.76-1.265.217-.094.737-.141 1.534-.141z" fill="#7b003a"/></g></svg>